<svg width="1522" height="179" viewBox="0 0 1522 179" fill="none" xmlns="http://www.w3.org/2000/svg">
<path d="M86.5909 90.3636C86.5909 99.767 84.8295 107.821 81.3068 114.526C77.8125 121.202 73.0398 126.315 66.9886 129.866C60.9659 133.418 54.1335 135.193 46.4915 135.193C38.8494 135.193 32.0028 133.418 25.9517 129.866C19.929 126.287 15.1563 121.159 11.6335 114.483C8.1392 107.778 6.39205 99.7386 6.39205 90.3636C6.39205 80.9602 8.1392 72.9205 11.6335 66.2443C15.1563 59.5398 19.929 54.4119 25.9517 50.8608C32.0028 47.3097 38.8494 45.5341 46.4915 45.5341C54.1335 45.5341 60.9659 47.3097 66.9886 50.8608C73.0398 54.4119 77.8125 59.5398 81.3068 66.2443C84.8295 72.9205 86.5909 80.9602 86.5909 90.3636ZM70.696 90.3636C70.696 83.7443 69.6591 78.1619 67.5852 73.6165C65.5398 69.0426 62.6989 65.5909 59.0625 63.2614C55.4261 60.9034 51.2358 59.7244 46.4915 59.7244C41.7472 59.7244 37.5568 60.9034 33.9205 63.2614C30.2841 65.5909 27.429 69.0426 25.3551 73.6165C23.3097 78.1619 22.2869 83.7443 22.2869 90.3636C22.2869 96.983 23.3097 102.58 25.3551 107.153C27.429 111.699 30.2841 115.151 33.9205 117.509C37.5568 119.838 41.7472 121.003 46.4915 121.003C51.2358 121.003 55.4261 119.838 59.0625 117.509C62.6989 115.151 65.5398 111.699 67.5852 107.153C69.6591 102.58 70.696 96.983 70.696 90.3636ZM99.1376 134V46.7273H131.865C138.569 46.7273 144.194 47.892 148.74 50.2216C153.314 52.5511 156.765 55.8182 159.095 60.0227C161.453 64.1989 162.632 69.071 162.632 74.6392C162.632 80.2358 161.439 85.0937 159.052 89.2131C156.694 93.304 153.214 96.4716 148.612 98.7159C144.01 100.932 138.356 102.04 131.652 102.04H108.342V88.9148H129.521C133.442 88.9148 136.652 88.375 139.152 87.2955C141.652 86.1875 143.498 84.5824 144.692 82.4801C145.913 80.3494 146.524 77.7358 146.524 74.6392C146.524 71.5426 145.913 68.9006 144.692 66.7131C143.47 64.4972 141.609 62.821 139.109 61.6847C136.609 60.5199 133.385 59.9375 129.436 59.9375H114.947V134H99.1376ZM144.223 94.4545L165.828 134H148.186L126.964 94.4545H144.223ZM190.594 46.7273V134H174.785V46.7273H190.594ZM205.314 134V46.7273H262.076V59.9801H221.124V83.6733H259.135V96.9261H221.124V120.747H262.416V134H205.314ZM347.524 46.7273V134H333.461L292.339 74.554H291.614V134H275.805V46.7273H289.953L331.032 106.216H331.799V46.7273H347.524ZM358.515 59.9801V46.7273H428.146V59.9801H401.171V134H385.489V59.9801H358.515ZM439.829 134H422.954L453.679 46.7273H473.196L503.963 134H487.088L463.778 64.625H463.096L439.829 134ZM440.383 99.7812H486.406V112.48H440.383V99.7812ZM498.676 59.9801V46.7273H568.307V59.9801H541.332V134H525.65V59.9801H498.676ZM595.139 46.7273V134H579.33V46.7273H595.139ZM687.842 90.3636C687.842 99.767 686.081 107.821 682.558 114.526C679.064 121.202 674.291 126.315 668.24 129.866C662.217 133.418 655.385 135.193 647.743 135.193C640.101 135.193 633.254 133.418 627.203 129.866C621.181 126.287 616.408 121.159 612.885 114.483C609.391 107.778 607.644 99.7386 607.644 90.3636C607.644 80.9602 609.391 72.9205 612.885 66.2443C616.408 59.5398 621.181 54.4119 627.203 50.8608C633.254 47.3097 640.101 45.5341 647.743 45.5341C655.385 45.5341 662.217 47.3097 668.24 50.8608C674.291 54.4119 679.064 59.5398 682.558 66.2443C686.081 72.9205 687.842 80.9602 687.842 90.3636ZM671.948 90.3636C671.948 83.7443 670.911 78.1619 668.837 73.6165C666.791 69.0426 663.95 65.5909 660.314 63.2614C656.678 60.9034 652.487 59.7244 647.743 59.7244C642.999 59.7244 638.808 60.9034 635.172 63.2614C631.536 65.5909 628.681 69.0426 626.607 73.6165C624.561 78.1619 623.539 83.7443 623.539 90.3636C623.539 96.983 624.561 102.58 626.607 107.153C628.681 111.699 631.536 115.151 635.172 117.509C638.808 119.838 642.999 121.003 647.743 121.003C652.487 121.003 656.678 119.838 660.314 117.509C663.95 115.151 666.791 111.699 668.837 107.153C670.911 102.58 671.948 96.983 671.948 90.3636ZM772.108 46.7273V134H758.045L716.923 74.554H716.199V134H700.389V46.7273H714.537L755.616 106.216H756.384V46.7273H772.108Z" fill="#E59725"/>
<path d="M807.842 37.3242H803.849V141.321H807.842V37.3242Z" fill="#606060"/>
<g clip-path="url(#clip0_1104_1252)">
<path d="M1361.16 53.0156C1357.38 53.0156 1353.6 53.0156 1349.82 53.0156C1347.73 53.0156 1346.98 53.7726 1346.98 55.8013C1346.98 60.7368 1346.98 65.7026 1346.98 70.6381C1346.98 71.4557 1347.04 72.2732 1347.19 73.0302C1347.91 76.5123 1350.21 78.3593 1353.6 78.9649C1354.05 79.0557 1354.48 79.1163 1354.93 79.2374C1356.5 79.6311 1356.93 80.1458 1356.77 81.4781C1356.65 82.5681 1356.05 82.9921 1354.39 82.9315C1352.63 82.8709 1350.88 82.7195 1349.12 82.5379C1344.1 82.0231 1339.09 82.2351 1334.07 82.7498C1333.13 82.8407 1332.16 82.9315 1331.19 82.9315C1330.32 82.9618 1329.56 82.6287 1329.35 81.69C1329.14 80.8119 1329.5 80.0852 1330.26 79.6311C1330.8 79.298 1331.37 78.9649 1331.98 78.7227C1334.94 77.4207 1336.21 75.0286 1336.45 71.9401C1336.48 71.3951 1336.48 70.8198 1336.48 70.2748C1336.48 58.7687 1336.48 47.2625 1336.48 35.7564C1336.48 35.0903 1336.45 34.4544 1336.45 33.7883C1336.27 29.4583 1334.28 27.2479 1330.01 26.6121C1329.32 26.5212 1328.62 26.3396 1327.99 26.0671C1327.26 25.7643 1326.9 25.189 1327.02 24.3714C1327.14 23.5539 1327.59 23.0089 1328.38 22.9786C1329.77 22.9483 1331.19 22.9483 1332.58 23.13C1337.91 23.7356 1343.23 23.675 1348.55 23.0997C1349.61 22.9786 1350.64 22.8575 1351.69 22.7363C1352.54 22.6455 1353.33 22.7969 1353.66 23.7356C1353.99 24.6742 1353.63 25.4615 1352.63 25.9459C1352 26.2487 1351.33 26.491 1350.7 26.7938C1348.37 27.8535 1347.07 29.6703 1347.01 32.2137C1346.92 36.8162 1346.92 41.3884 1346.92 45.9908C1346.92 47.3231 1347.61 47.9892 1348.94 48.1406C1349.4 48.2012 1349.85 48.2012 1350.3 48.2012C1357.5 48.2012 1364.73 48.2012 1371.92 48.2012C1372.38 48.2012 1372.83 48.2012 1373.28 48.1406C1374.58 47.9892 1375.43 47.2928 1375.4 46.0211C1375.37 41.3884 1375.37 36.7556 1375.07 32.1229C1374.86 29.0647 1372.44 27.0966 1368.96 26.5818C1368.26 26.491 1367.57 26.3093 1366.93 26.0671C1366.15 25.7945 1365.63 25.189 1365.82 24.3109C1365.97 23.4933 1366.51 22.918 1367.39 22.918C1368.6 22.8877 1369.81 22.8877 1371.02 23.0391C1377.37 23.8264 1383.66 23.5236 1389.98 22.7969C1390.28 22.7666 1390.58 22.6758 1390.88 22.6758C1391.7 22.7061 1392.33 23.0694 1392.55 23.9475C1392.73 24.7348 1392.39 25.3404 1391.76 25.734C1391.34 26.0065 1390.85 26.1882 1390.4 26.3698C1387.31 27.5507 1385.83 29.852 1385.74 33.0918C1385.71 33.9094 1385.68 34.6966 1385.68 35.5142C1385.68 46.9295 1385.65 58.3145 1385.71 69.7297C1385.71 71.3043 1385.95 72.9696 1386.41 74.4836C1387.07 76.694 1388.67 78.1171 1390.97 78.6924C1391.76 78.8741 1392.55 79.0558 1393.3 79.3585C1394.45 79.8127 1394.9 80.6303 1394.66 81.5689C1394.42 82.5379 1393.91 82.9315 1392.61 82.9012C1391.06 82.8407 1389.49 82.6893 1387.95 82.5379C1382.87 81.9626 1377.79 82.2351 1372.74 82.7498C1371.89 82.8407 1371.05 82.8709 1370.17 82.9012C1369.29 82.9315 1368.57 82.659 1368.26 81.7506C1367.99 80.9331 1368.42 80.0247 1369.35 79.4797C1369.87 79.1769 1370.41 78.8741 1370.96 78.6318C1374.01 77.2996 1375.34 74.7864 1375.43 71.6676C1375.58 66.2779 1375.52 60.8579 1375.49 55.4682C1375.49 53.712 1374.55 52.955 1372.62 52.955C1368.81 52.9853 1364.97 53.0156 1361.16 53.0156Z" fill="#E59725"/>
<path d="M1106.83 53.0175C1103.05 53.0175 1099.27 53.0175 1095.49 53.0175C1093.16 53.0175 1092.44 53.7442 1092.44 56.106C1092.44 60.7387 1092.44 65.4017 1092.44 70.0344C1092.44 70.7308 1092.44 71.4575 1092.56 72.154C1093.19 76.2417 1095.19 78.2704 1099.27 79.0273C1099.81 79.1182 1100.36 79.209 1100.9 79.3604C1102.02 79.6935 1102.57 80.4808 1102.41 81.48C1102.26 82.4489 1101.66 82.9939 1100.45 82.9636C1098.45 82.9031 1096.43 82.6003 1094.43 82.57C1090.5 82.5095 1086.6 82.5095 1082.67 82.57C1080.83 82.6003 1078.95 82.8728 1077.11 82.9939C1076.23 83.0545 1075.35 82.9637 1074.99 81.9644C1074.63 80.9955 1075.08 80.1174 1076.17 79.4815C1076.74 79.1485 1077.29 78.8154 1077.89 78.5732C1080.25 77.5739 1081.4 75.6361 1081.85 73.244C1082.07 72.1237 1082.16 70.9428 1082.16 69.7922C1082.19 58.7403 1082.19 47.6883 1082.16 36.6364C1082.16 35.2436 1082.03 33.8204 1081.88 32.4276C1081.49 29.2786 1079.37 27.2801 1075.93 26.7351C1075.32 26.6443 1074.72 26.5837 1074.14 26.402C1072.87 26.0084 1072.36 25.312 1072.54 24.3733C1072.72 23.5255 1073.66 22.8594 1074.75 22.9199C1075.81 22.9502 1076.86 23.0713 1077.89 23.1924C1083.27 23.8283 1088.63 23.7677 1094.01 23.1924C1095.07 23.0713 1096.1 22.9502 1097.15 22.8594C1098.36 22.7382 1099.03 23.1319 1099.27 24.0705C1099.48 24.9184 1099.12 25.6148 1098.12 26.0992C1097.67 26.3112 1097.21 26.4929 1096.73 26.6745C1093.92 27.7646 1092.53 29.8841 1092.47 32.8515C1092.38 37.1814 1092.41 41.5417 1092.41 45.8716C1092.41 47.4461 1093.13 48.1728 1094.7 48.2636C1095.82 48.3242 1096.91 48.2939 1098.03 48.2939C1104.44 48.2939 1110.82 48.2939 1117.23 48.2939C1117.84 48.2939 1118.44 48.2939 1119.05 48.2031C1120.16 48.0517 1120.92 47.4461 1120.92 46.3561C1120.92 41.7536 1121.07 37.1512 1120.71 32.6093C1120.44 29.1574 1118.26 27.371 1114.78 26.7351C1114.24 26.6443 1113.69 26.5534 1113.15 26.4323C1111.79 26.069 1111.27 25.4028 1111.49 24.343C1111.64 23.4952 1112.54 22.8594 1113.69 22.9199C1114.81 22.9805 1115.9 23.0713 1116.99 23.1924C1122.25 23.8283 1127.54 23.7375 1132.8 23.1924C1133.89 23.0713 1135.01 22.9502 1136.1 22.8291C1137.01 22.7382 1137.7 23.0108 1138.03 23.8889C1138.37 24.767 1138 25.4937 1137.07 26.0084C1136.43 26.3415 1135.77 26.5534 1135.13 26.8562C1132.89 27.9766 1131.53 29.7328 1131.41 32.3065C1131.32 34.0627 1131.2 35.8189 1131.2 37.5751C1131.17 48.3848 1131.17 59.1642 1131.2 69.9739C1131.2 71.3667 1131.41 72.7898 1131.78 74.1524C1132.41 76.5747 1134.01 78.1492 1136.46 78.8154C1137.34 79.0576 1138.22 79.2696 1139.06 79.6026C1140.09 80.0568 1140.45 80.8138 1140.18 81.813C1139.94 82.7517 1139.21 83.0848 1138.34 83.0242C1136.83 82.9334 1135.31 82.8425 1133.83 82.6911C1128.51 82.0856 1123.19 82.3278 1117.87 82.9334C1117.08 83.0242 1116.26 83.0545 1115.45 83.0242C1114.72 82.9939 1114.06 82.7517 1113.81 81.9342C1113.6 81.1166 1113.78 80.3899 1114.48 79.9054C1115.08 79.4815 1115.75 79.0879 1116.45 78.7851C1119.38 77.4528 1120.83 75.091 1120.89 71.9723C1121.01 66.4615 1120.98 60.9809 1120.95 55.4701C1120.95 53.8653 1120.04 53.078 1118.29 53.078C1114.48 52.9872 1110.67 53.0175 1106.83 53.0175Z" fill="#E59725"/>
<path d="M1245.71 52.2894C1248.37 55.1659 1249.7 58.7388 1251.55 62.009C1253.33 65.158 1254.99 68.3979 1256.72 71.5772C1257.26 72.6067 1257.93 73.5454 1258.56 74.5446C1259.86 76.6339 1261.74 77.5725 1264.19 77.1789C1264.91 77.0578 1265.76 76.7853 1266.15 77.7542C1266.51 78.6929 1266.06 79.4498 1265.4 80.0251C1263.49 81.6299 1261.22 82.3869 1258.77 82.6594C1254.48 83.1742 1251.43 81.1455 1248.95 77.9359C1246.32 74.5143 1244.38 70.6991 1242.51 66.8537C1241.08 63.9469 1239.57 61.1006 1238.15 58.2241C1237 55.9531 1235.28 54.6209 1232.68 54.6511C1231.32 54.6511 1229.99 54.6511 1228.63 54.7723C1227.66 54.8631 1227.12 55.499 1227.02 56.4982C1226.99 56.801 1226.93 57.1038 1226.93 57.4066C1226.96 62.1907 1226.96 67.0051 1227.02 71.7892C1227.02 72.637 1227.21 73.4848 1227.45 74.3024C1228.11 76.6036 1229.56 78.1478 1231.92 78.7837C1232.74 78.9957 1233.56 79.2984 1234.31 79.6618C1235.16 80.0554 1235.34 80.873 1235.13 81.7208C1234.95 82.5989 1234.28 82.9925 1233.46 82.932C1231.86 82.8411 1230.26 82.5989 1228.66 82.5686C1224.7 82.508 1220.73 82.508 1216.74 82.5686C1214.99 82.5989 1213.24 82.8411 1211.48 82.9622C1210.61 83.0228 1209.73 82.8714 1209.4 81.8419C1209.09 80.9638 1209.55 80.0857 1210.58 79.4801C1211.15 79.147 1211.72 78.8443 1212.33 78.5717C1215.08 77.3303 1216.2 75.0593 1216.47 72.2131C1216.53 71.5167 1216.56 70.79 1216.56 70.0936C1216.56 58.7994 1216.56 47.475 1216.56 36.1808C1216.56 35.1816 1216.53 34.1521 1216.47 33.1529C1216.26 29.4891 1214.45 27.3998 1210.88 26.6428C1210.33 26.5217 1209.79 26.4309 1209.24 26.2795C1208.31 26.007 1207.76 25.4014 1207.82 24.4022C1207.88 23.5543 1208.58 22.979 1209.67 22.979C1210.67 22.9488 1211.66 23.1002 1212.69 23.1304C1216.17 23.2818 1219.62 23.5543 1223.09 23.4938C1227.02 23.403 1230.93 22.9185 1234.83 22.7671C1239.12 22.5854 1243.38 22.979 1247.4 24.6747C1254.33 27.5815 1256.81 33.6373 1256.23 40.2988C1255.78 45.6582 1252.73 49.1403 1247.98 51.3204C1247.62 51.5021 1247.25 51.6535 1246.86 51.8049C1246.5 51.9563 1246.13 52.1077 1245.71 52.2894ZM1227.24 39.4207C1227.18 39.4207 1227.08 39.4207 1227.02 39.4207C1227.02 41.1769 1226.99 42.9633 1227.02 44.7195C1227.05 45.961 1227.15 47.2327 1227.27 48.4742C1227.39 49.6551 1228.17 50.2909 1229.26 50.4423C1233.04 50.9874 1236.79 50.9571 1240.45 49.8065C1243.29 48.9284 1245.08 46.9299 1245.5 43.9626C1245.74 42.2972 1245.89 40.541 1245.77 38.8454C1245.2 30.9728 1240.09 26.3098 1231.95 26.34C1228.78 26.3703 1227.54 27.4301 1227.27 30.6397C1227.05 33.5768 1227.24 36.5139 1227.24 39.4207Z" fill="#E59725"/>
<path d="M1149.65 44.8419C1149.65 40.8148 1149.71 36.7574 1149.65 32.7302C1149.59 29.0967 1148.44 27.6736 1144.93 26.7047C1144.05 26.4624 1143.15 26.3413 1142.3 26.0991C1141.18 25.7963 1140.76 25.2513 1140.91 24.3126C1141.06 23.3134 1141.78 22.9803 1142.66 23.0106C1144.57 23.1014 1146.47 23.2226 1148.38 23.4042C1152.46 23.7979 1156.51 23.5859 1160.56 23.162C1161.77 23.0409 1162.95 22.8895 1164.16 22.7381C1164.4 22.7078 1164.67 22.6775 1164.92 22.7381C1165.76 22.8895 1166.7 22.9803 1166.82 24.1007C1166.91 25.1301 1166.19 25.6146 1165.34 25.9477C1165.1 26.0385 1164.86 26.0991 1164.61 26.1899C1161.62 27.1286 1160.44 28.582 1160.23 31.7613C1160.08 34.2139 1159.93 36.6968 1159.93 39.1494C1159.9 46.2045 1159.87 53.2898 1159.99 60.3449C1160.02 62.5553 1160.29 64.7959 1160.8 66.9155C1162.71 74.5761 1169.66 79.2997 1178.16 78.3005C1181.85 77.8766 1185.18 76.6048 1187.96 74.0614C1191.01 71.2757 1192.61 67.7028 1193.1 63.7362C1193.55 60.1027 1193.73 56.4086 1193.82 52.7448C1193.91 47.1432 1193.85 41.5415 1193.76 35.9398C1193.73 34.3048 1193.49 32.6394 1193.16 31.0043C1192.73 28.9756 1191.4 27.6433 1189.38 27.0983C1188.32 26.8258 1187.23 26.5836 1186.17 26.311C1185.6 26.1596 1184.93 26.0385 1184.51 25.6752C1184.09 25.3118 1183.66 24.6457 1183.63 24.1007C1183.6 23.374 1184.27 22.9803 1184.99 22.9803C1186.26 22.9803 1187.5 23.0409 1188.77 23.1014C1191.37 23.2528 1193.97 23.5253 1196.61 23.5253C1198.39 23.5253 1200.2 23.1014 1201.99 22.8895C1202.29 22.8592 1202.59 22.8289 1202.86 22.8592C1203.56 22.9198 1204.32 23.1317 1204.29 23.919C1204.26 24.4943 1203.86 25.0999 1203.5 25.5843C1203.29 25.8568 1202.8 26.0082 1202.44 26.0991C1199.81 26.7047 1198.75 28.5214 1198.63 31.0346C1198.51 33.3358 1198.36 35.6673 1198.33 37.9685C1198.27 43.9638 1198.39 49.9894 1198.24 55.9847C1198.09 61.3441 1197.21 66.6127 1194.82 71.4877C1191.47 78.3308 1185.81 82.0248 1178.46 83.1754C1174.17 83.8416 1169.85 83.8113 1165.55 82.9635C1158.08 81.4495 1153.52 76.8774 1151.46 69.6406C1150.28 65.4924 1149.86 61.223 1149.77 56.9536C1149.68 52.9265 1149.74 48.8691 1149.74 44.8419C1149.71 44.8419 1149.68 44.8419 1149.65 44.8419Z" fill="#E59725"/>
<path d="M1014.21 54.6207C1014.45 46.3544 1016.78 38.9058 1021.98 32.4563C1027.12 26.0976 1033.78 22.555 1041.97 22.0099C1048.32 21.586 1054.22 23.1605 1059.9 25.8554C1060.23 26.0068 1060.54 26.1582 1060.84 26.3096C1063.02 27.3391 1063.11 27.3088 1064.5 25.3709C1064.8 24.947 1065.52 24.4323 1065.89 24.5534C1066.37 24.7048 1066.83 25.3709 1067.04 25.916C1067.28 26.461 1067.22 27.0968 1067.28 27.7024C1067.67 32.214 1068.03 36.7256 1068.43 41.2675C1068.43 41.4189 1068.49 41.5703 1068.49 41.7217C1068.58 42.509 1068.58 43.2962 1067.73 43.6596C1066.83 44.0229 1066.28 43.3871 1065.89 42.7512C1065.16 41.6006 1064.56 40.3894 1063.89 39.2085C1060.81 33.6977 1056.57 29.4889 1050.71 27.0666C1047.44 25.704 1044.06 25.1287 1040.52 25.5829C1035.89 26.1885 1032.41 28.6714 1029.69 32.3654C1027.09 35.9081 1025.73 39.9352 1025.13 44.2349C1024.19 51.1991 1025.07 57.9211 1028.09 64.2798C1029.87 68.0041 1032.23 71.3348 1035.56 73.848C1041.37 78.2688 1047.78 78.6321 1054.43 76.1795C1058.93 74.5141 1062.65 71.7587 1065.71 68.0647C1066.16 67.5196 1066.67 67.0049 1067.25 66.6718C1067.61 66.4599 1068.34 66.369 1068.61 66.581C1068.94 66.8535 1069.18 67.5499 1069.12 68.0041C1069.03 68.6703 1068.73 69.3667 1068.34 69.942C1063.62 76.8456 1057.39 81.5995 1049.11 83.2649C1042.67 84.5669 1036.25 84.3549 1030.18 81.5692C1021.83 77.754 1016.99 71.0623 1015.12 62.1905C1014.6 59.647 1014.51 57.1339 1014.21 54.6207Z" fill="#E59725"/>
<path d="M1279.24 48.477C1279.31 57.0763 1281.42 64.1314 1286.35 70.1873C1292.19 77.3332 1300.38 79.4527 1309 76.0917C1313.23 74.4264 1316.92 71.9435 1319.82 68.3705C1320.37 67.7044 1320.97 67.0988 1321.7 66.6446C1322.06 66.4024 1322.85 66.3721 1323.18 66.584C1323.51 66.8263 1323.69 67.5832 1323.57 68.0374C1323.39 68.7944 1323.06 69.5817 1322.61 70.2175C1317.37 77.5754 1310.51 82.3595 1301.41 83.5707C1295.24 84.3882 1289.22 83.9038 1283.63 81.0272C1276.34 77.2726 1271.75 71.3076 1269.9 63.3744C1267.33 52.3831 1269.21 42.1184 1276.04 33.0346C1281.12 26.2823 1287.98 22.5883 1296.48 22.013C1302.8 21.5891 1308.64 23.1939 1314.26 25.7979C1314.9 26.1007 1315.53 26.4337 1316.17 26.7063C1317.47 27.2513 1317.95 27.0999 1318.64 25.919C1318.67 25.8887 1318.67 25.8282 1318.71 25.7979C1319.1 25.162 1319.4 24.3445 1320.37 24.5261C1321.37 24.7078 1321.55 25.5859 1321.64 26.3732C1322.09 31.3995 1322.48 36.3956 1322.88 41.422C1322.94 42.2092 1323.27 43.269 1322.18 43.6626C1321.06 44.026 1320.55 43.0873 1320.1 42.3303C1319.28 40.9981 1318.61 39.5749 1317.8 38.2426C1314.26 32.3382 1309.39 28.0991 1302.71 26.1915C1296.15 24.3445 1290.22 25.4345 1285.47 30.6728C1282.09 34.3972 1280.33 38.9391 1279.64 43.8746C1279.4 45.6611 1279.34 47.4778 1279.24 48.477Z" fill="#E59725"/>
<path d="M1457.83 82.9038C1453.75 82.6918 1449.39 82.3285 1445.01 82.3285C1440.59 82.3285 1436.15 82.6615 1431.73 82.8432C1430.98 82.8735 1430.22 82.9643 1429.47 82.9341C1428.74 82.9038 1428.01 82.7221 1427.8 81.9046C1427.56 80.9962 1427.74 80.1786 1428.59 79.6639C1429.01 79.3914 1429.47 79.1189 1429.92 78.9675C1433.58 77.6352 1434.82 74.7587 1435.03 71.1857C1435.06 70.8224 1435.06 70.4893 1435.06 70.1259C1435.06 58.9226 1435.06 47.7193 1435.06 36.516C1435.06 35.1231 1434.94 33.7 1434.73 32.3072C1434.27 29.1884 1432.13 27.2505 1428.68 26.6752C1427.95 26.5541 1427.2 26.3724 1426.5 26.1302C1425.78 25.888 1425.32 25.3429 1425.41 24.5254C1425.5 23.6776 1426.02 23.072 1426.87 23.0417C1428.17 23.0114 1429.47 23.0417 1430.77 23.1628C1436.15 23.7684 1441.5 23.7381 1446.88 23.1628C1447.97 23.0417 1449.09 22.8903 1450.18 22.7995C1451.03 22.7389 1451.78 22.9206 1452.05 23.9198C1452.33 24.8888 1452.05 25.4943 1451.09 26.0091C1450.72 26.1908 1450.36 26.3422 1449.97 26.4936C1446.97 27.6744 1445.4 29.8243 1445.34 33.0641C1445.31 34.4267 1445.25 35.7893 1445.25 37.1518C1445.25 47.901 1445.22 58.6501 1445.25 69.3992C1445.25 71.216 1445.37 73.0327 1445.64 74.8192C1445.95 76.8479 1446.73 77.5141 1448.82 77.8774C1452.9 78.6041 1456.83 77.9077 1460.7 76.636C1464.75 75.3037 1468.05 72.9722 1470.23 69.157C1470.56 68.5817 1470.95 68.067 1471.44 67.6128C1472.13 66.9466 1472.86 67.1283 1473.22 68.0064C1473.37 68.4 1473.49 68.8845 1473.43 69.3387C1472.92 73.1539 1471.74 76.7268 1469.05 79.5731C1466.84 81.9046 1463.94 82.6918 1460.88 82.9643C1459.95 82.9643 1459.01 82.9038 1457.83 82.9038Z" fill="#E59725"/>
<path d="M1506.18 82.9021C1501.79 82.6902 1497.44 82.3268 1493.06 82.2965C1488.73 82.2663 1484.41 82.6296 1480.08 82.8113C1479.27 82.8416 1478.48 82.9324 1477.66 82.9324C1476.85 82.9324 1476.15 82.5993 1475.91 81.7515C1475.7 80.9037 1475.97 80.1467 1476.73 79.6623C1477.27 79.3292 1477.85 78.9961 1478.45 78.7539C1481.6 77.4821 1482.87 74.969 1483.11 71.7594C1483.14 71.2446 1483.14 70.7602 1483.14 70.2454C1483.14 58.7999 1483.14 47.324 1483.14 35.8785C1483.14 34.8187 1483.14 33.7589 1482.96 32.6991C1482.32 28.9748 1480.42 27.158 1476.7 26.5827C1476.09 26.4919 1475.49 26.4011 1474.94 26.1891C1473.88 25.7955 1473.43 25.1293 1473.58 24.2815C1473.73 23.4034 1474.52 22.7676 1475.58 22.7676C1476.7 22.7978 1477.79 22.8887 1478.87 23.0401C1484.29 23.6759 1489.73 23.6154 1495.14 23.0401C1496.2 22.919 1497.23 22.7676 1498.29 22.6767C1499.16 22.6162 1499.89 22.8584 1500.22 23.7668C1500.52 24.6146 1500.16 25.3716 1499.22 25.8863C1498.95 26.0377 1498.68 26.1588 1498.41 26.2497C1495.11 27.4003 1493.51 29.7621 1493.42 33.2139C1493.42 33.88 1493.39 34.5159 1493.39 35.182C1493.39 47.0515 1493.39 58.8907 1493.39 70.7602C1493.39 72.0016 1493.51 73.2733 1493.69 74.5148C1493.99 76.5738 1494.87 77.3913 1496.9 77.7547C1500.83 78.4208 1504.61 77.8455 1508.33 76.6343C1511.29 75.6957 1514.04 74.3028 1516.13 71.941C1517.06 70.8813 1517.76 69.6398 1518.61 68.5195C1519.09 67.8533 1519.51 66.8541 1520.54 67.1569C1521.66 67.49 1521.6 68.5498 1521.45 69.4581C1520.78 73.5761 1519.54 77.4216 1516.22 80.2073C1513.92 82.1451 1511.11 82.6902 1508.17 82.8416C1507.57 82.9627 1506.87 82.9324 1506.18 82.9021C1506.18 82.9324 1506.18 82.9324 1506.18 82.9021Z" fill="#E59725"/>
<path d="M1422.15 82.8742C1419.03 82.6925 1415.92 82.3291 1412.8 82.3291C1409.3 82.3291 1405.76 82.6319 1402.25 82.7833C1401.28 82.8439 1400.35 82.9347 1399.38 82.9044C1398.65 82.8742 1397.99 82.5714 1397.84 81.7236C1397.72 80.9363 1397.81 80.1793 1398.59 79.7554C1399.44 79.3012 1400.26 78.8167 1401.16 78.4534C1403.49 77.5753 1404.4 75.6677 1404.79 73.4573C1405 72.1856 1405.12 70.8533 1405.12 69.5513C1405.12 58.0452 1405.12 46.5391 1405.09 35.033C1405.09 33.8823 1405 32.7015 1404.79 31.5811C1404.43 29.613 1403.4 28.099 1401.44 27.4631C1400.1 27.0392 1398.71 26.7364 1397.35 26.4337C1395.87 26.0703 1395.33 25.495 1395.48 24.3747C1395.63 23.3452 1396.57 22.7093 1397.9 22.891C1403.01 23.6177 1408.15 23.436 1413.29 23.2846C1415.56 23.2241 1417.79 22.9213 1420.06 22.8001C1420.67 22.7699 1421.39 22.9515 1421.88 23.2846C1422.63 23.8296 1422.48 25.0408 1421.63 25.6161C1421.18 25.9189 1420.67 26.1914 1420.12 26.3125C1416.86 27.0392 1415.71 29.3707 1415.47 32.3987C1415.37 33.5493 1415.34 34.7302 1415.34 35.8808C1415.34 47.1447 1415.31 58.3783 1415.34 69.6421C1415.34 71.035 1415.47 72.4581 1415.77 73.8509C1416.37 76.5761 1418.07 78.2717 1420.85 78.7562C1421.85 78.9379 1422.81 79.1195 1423.78 79.3921C1424.99 79.7251 1425.47 80.4518 1425.32 81.451C1425.17 82.3897 1424.54 82.9044 1423.36 82.9953C1422.96 83.0256 1422.54 82.9953 1422.15 82.9953C1422.15 82.9044 1422.15 82.9044 1422.15 82.8742Z" fill="#E59725"/>
<path d="M1097.76 129.472C1096.13 129.472 1094.52 129.533 1092.95 129.412C1092.56 129.381 1092.1 128.806 1091.83 128.352C1088.93 123.689 1086.06 119.026 1083.15 114.363C1082.91 113.999 1082.67 113.636 1082.16 113.333C1082.16 118.632 1082.16 123.931 1082.16 129.351C1080.4 129.351 1078.83 129.351 1077.17 129.351C1077.17 120.691 1077.17 112.062 1077.17 103.25C1078.71 103.25 1080.22 103.19 1081.7 103.281C1082.07 103.311 1082.52 103.765 1082.76 104.159C1085.75 109.003 1088.72 113.848 1091.71 118.723C1091.98 119.177 1092.29 119.631 1092.8 120.025C1092.8 114.514 1092.8 109.003 1092.8 103.371C1094.49 103.371 1096.1 103.371 1097.79 103.371C1097.76 111.971 1097.76 120.6 1097.76 129.472Z" fill="#606061"/>
<path d="M1138.52 120.874C1140.21 120.723 1141.81 120.571 1143.48 120.42C1143.69 121.025 1143.84 121.54 1144.05 122.055C1145.38 125.477 1150.67 126.627 1153.34 124.084C1154.91 122.57 1154.57 120.238 1152.52 119.421C1151.04 118.815 1149.43 118.512 1147.89 118.058C1146.5 117.634 1145.08 117.241 1143.75 116.696C1140.88 115.454 1139.21 112.911 1139.37 109.913C1139.52 106.825 1141.15 104.675 1144.02 103.645C1147.5 102.434 1151.07 102.434 1154.48 103.857C1157.39 105.068 1158.66 107.46 1158.96 110.7C1157.21 110.821 1155.48 110.942 1153.79 111.064C1153.67 110.821 1153.58 110.7 1153.55 110.579C1153.06 108.46 1151.7 107.339 1149.62 107.309C1148.41 107.279 1147.14 107.521 1145.96 107.854C1145.14 108.096 1144.48 108.732 1144.51 109.762C1144.51 110.761 1145.05 111.397 1145.9 111.699C1147.11 112.154 1148.35 112.547 1149.62 112.941C1151.16 113.425 1152.73 113.758 1154.24 114.303C1158.23 115.757 1159.84 118.21 1159.65 122.358C1159.53 125.719 1157.27 128.414 1153.61 129.383C1150.58 130.17 1147.53 130.17 1144.54 129.231C1140.97 128.141 1138.55 124.78 1138.52 120.874Z" fill="#606061"/>
<path d="M1485.89 129.26C1485.89 120.6 1485.89 112.031 1485.89 103.371C1492.24 103.371 1498.62 103.371 1505.09 103.371C1505.09 104.764 1505.09 106.187 1505.09 107.762C1500.46 107.762 1495.87 107.762 1491.18 107.762C1491.18 109.699 1491.18 111.486 1491.18 113.484C1495.53 113.484 1499.83 113.484 1504.18 113.484C1504.18 115.029 1504.18 116.361 1504.18 117.845C1499.86 117.845 1495.6 117.845 1491.21 117.845C1491.21 120.297 1491.21 122.568 1491.21 124.99C1496.02 124.99 1500.71 124.99 1505.51 124.99C1505.51 126.474 1505.51 127.806 1505.51 129.26C1498.98 129.26 1492.51 129.26 1485.89 129.26Z" fill="#606061"/>
<path d="M1364.18 103.312C1366.18 103.312 1367.87 103.312 1369.72 103.312C1369.72 103.918 1369.72 104.463 1369.72 105.008C1369.72 110.156 1369.75 115.303 1369.75 120.451C1369.75 122.358 1370.38 123.963 1372.23 124.78C1374.25 125.689 1376.37 125.719 1378.27 124.417C1379.45 123.63 1379.79 122.328 1379.79 120.965C1379.82 115.666 1379.85 110.368 1379.88 105.069C1379.88 104.524 1379.88 103.979 1379.88 103.343C1381.69 103.343 1383.35 103.343 1385.05 103.343C1385.05 109.641 1385.35 115.878 1384.96 122.086C1384.62 127.294 1381.33 129.837 1376.04 129.867C1374.43 129.867 1372.8 129.807 1371.23 129.565C1367.45 128.959 1364.82 126.204 1364.67 122.358C1364.36 116.06 1364.33 109.762 1364.18 103.312Z" fill="#606061"/>
<path d="M1425.29 103.312C1432.19 103.312 1438.99 103.312 1445.88 103.312C1445.88 104.766 1445.88 106.159 1445.88 107.703C1443.44 107.703 1440.99 107.703 1438.39 107.703C1438.39 114.97 1438.39 122.086 1438.39 129.353C1436.54 129.353 1434.85 129.353 1433 129.353C1433 122.237 1433 115.091 1433 107.824C1430.37 107.824 1427.86 107.824 1425.29 107.824C1425.29 106.25 1425.29 104.826 1425.29 103.312Z" fill="#606061"/>
<path d="M902.846 140.009C902.846 145.49 902.846 151.001 902.846 156.724C902.302 156.451 901.848 156.269 901.455 156.027C884.492 146.217 867.559 136.436 850.596 126.626C845.788 123.84 841.01 121.055 836.202 118.329C835.356 117.845 835.023 117.33 835.023 116.331C835.053 91.1085 835.053 65.8556 835.023 40.6329C835.023 39.6337 835.356 39.119 836.202 38.6345C858.034 26.0383 879.866 13.4119 901.697 0.755166C902.423 0.331256 902.967 0.300977 903.723 0.755166C923.922 12.4732 944.151 24.161 964.38 35.8488C966.073 36.8178 967.767 37.817 969.49 38.7859C970.065 39.119 970.397 39.452 970.397 40.1788C970.367 47.0521 970.367 53.8953 970.367 60.7686C970.367 60.92 970.307 61.0412 970.246 61.2834C965.499 61.2834 960.751 61.2834 955.823 61.2834C955.823 60.3447 955.823 59.4666 955.823 58.5583C955.823 55.4395 955.792 52.2905 955.853 49.1717C955.883 48.1422 955.551 47.5669 954.643 47.0521C943.244 40.5118 931.874 33.9109 920.505 27.3403C914.972 24.1307 909.438 20.9514 903.905 17.7115C903.058 17.1968 902.453 17.1968 901.576 17.7115C884.643 27.5523 867.68 37.3325 850.717 47.1127C849.93 47.5669 849.598 48.0816 849.598 48.99C849.628 68.611 849.628 88.2622 849.598 107.883C849.598 108.913 849.991 109.367 850.807 109.851C868.043 119.783 885.248 129.745 902.453 139.676C902.574 139.798 902.695 139.919 902.846 140.009Z" fill="#E59725"/>
<path d="M955.823 109.184C955.823 102.552 955.823 95.9212 955.823 89.1992C960.661 89.1992 965.378 89.1992 970.216 89.1992C970.246 89.6534 970.307 90.0773 970.307 90.5012C970.307 99.1308 970.307 107.76 970.337 116.39C970.337 117.298 970.095 117.843 969.278 118.298C951.831 128.35 934.414 138.433 916.998 148.486C916.483 148.789 915.969 149.031 915.334 149.394C915.274 148.97 915.244 148.728 915.244 148.486C915.244 143.55 915.274 138.585 915.214 133.649C915.214 132.65 915.758 132.347 916.423 131.954C924.496 127.291 932.54 122.628 940.613 117.995C945.633 115.088 950.682 112.151 955.823 109.184Z" fill="#606061"/>
<path d="M970.276 71.4258C970.276 76.2099 970.276 80.8426 970.276 85.5662C965.499 85.5662 960.751 85.5662 955.913 85.5662C955.913 80.9032 955.913 76.1796 955.913 71.4258C960.691 71.4258 965.408 71.4258 970.276 71.4258Z" fill="#606061"/>
<path d="M1211.66 129.289C1209.82 129.289 1208.19 129.289 1206.4 129.289C1206.4 122.113 1206.4 115.028 1206.4 107.791C1203.74 107.791 1201.26 107.791 1198.69 107.791C1198.69 106.247 1198.69 104.854 1198.69 103.34C1205.53 103.34 1212.39 103.34 1219.31 103.34C1219.31 104.763 1219.31 106.156 1219.31 107.67C1216.8 107.67 1214.32 107.67 1211.63 107.67C1211.66 114.967 1211.66 122.083 1211.66 129.289Z" fill="#606061"/>
<path d="M1303.95 103.312C1310.87 103.312 1317.65 103.312 1324.54 103.312C1324.54 104.766 1324.54 106.128 1324.54 107.733C1322.06 107.733 1319.52 107.733 1316.86 107.733C1316.86 115.031 1316.86 122.116 1316.86 129.292C1315.08 129.292 1313.44 129.292 1311.66 129.292C1311.66 122.146 1311.66 115.091 1311.66 107.854C1309.03 107.854 1306.52 107.854 1303.98 107.854C1303.95 106.219 1303.95 104.736 1303.95 103.312Z" fill="#606061"/>
<path d="M1030.3 103.281C1032.11 103.281 1033.75 103.281 1035.5 103.281C1035.5 111.971 1035.5 120.601 1035.5 129.352C1033.81 129.352 1032.08 129.352 1030.3 129.352C1030.3 120.631 1030.3 112.032 1030.3 103.281Z" fill="#606061"/>
<path d="M1264.13 129.289C1262.46 129.289 1260.86 129.289 1259.17 129.289C1259.17 120.66 1259.17 112.06 1259.17 103.34C1260.74 103.34 1262.37 103.34 1264.13 103.34C1264.13 111.969 1264.13 120.599 1264.13 129.289Z" fill="#606061"/>
<path d="M1269.51 166.445C1268.51 166.445 1267.6 166.445 1266.61 166.445C1266.61 162.781 1266.61 159.148 1266.61 155.393C1265.64 155.332 1264.76 155.302 1263.85 155.272C1263.76 154.666 1263.7 154.152 1263.61 153.637C1263.55 153.637 1263.46 153.607 1263.4 153.607C1261.68 157.876 1259.98 162.176 1258.26 166.475C1257.23 166.475 1256.23 166.475 1255.05 166.475C1253.33 162.085 1251.55 157.603 1249.76 153.031C1250.88 153.031 1251.91 153.031 1253.06 153.031C1254.24 156.301 1255.45 159.572 1256.78 163.205C1258.11 159.602 1259.29 156.332 1260.5 153.031C1263.52 153.031 1266.48 153.031 1269.54 153.031C1269.51 157.452 1269.51 161.903 1269.51 166.445Z" fill="#606061"/>
<path d="M1065.77 166.321C1067.16 167.775 1068.4 166.927 1069.82 166.2C1070.15 166.776 1070.48 167.381 1070.79 167.957C1068.64 170.258 1065.28 170.137 1063.38 167.684C1062.92 167.109 1062.5 166.685 1061.72 166.594C1057.78 166.11 1054.76 162.779 1055.7 158.086C1056.45 154.24 1060.69 151.939 1064.8 152.968C1067.52 153.634 1069.64 155.845 1070.06 158.419C1070.54 161.416 1069.37 164.051 1066.8 165.655C1066.46 165.867 1066.13 166.079 1065.77 166.321ZM1067.04 159.66C1067.01 157.359 1065.04 155.391 1062.8 155.421C1060.54 155.451 1058.63 157.419 1058.63 159.721C1058.63 162.082 1060.69 164.111 1062.95 164.051C1065.22 163.96 1067.07 161.961 1067.04 159.66Z" fill="#606061"/>
<path d="M1204.19 166.413C1204.04 166.443 1203.98 166.474 1203.95 166.474C1202.26 166.807 1201.05 166.231 1200.05 164.748C1198.57 162.537 1196.88 160.478 1195.27 158.359C1195.15 158.389 1195.03 158.389 1194.91 158.419C1194.91 159.721 1194.91 161.023 1194.91 162.325C1194.91 163.627 1194.91 164.929 1194.91 166.383C1193.94 166.383 1193.04 166.383 1192.04 166.383C1192.04 161.962 1192.04 157.541 1192.04 153.121C1194.25 152.545 1194.55 152.666 1195.82 154.332C1197.57 156.663 1199.3 158.995 1201.29 161.235C1201.29 158.51 1201.29 155.785 1201.29 152.969C1202.32 152.969 1203.2 152.969 1204.19 152.969C1204.19 157.451 1204.19 161.902 1204.19 166.413Z" fill="#606061"/>
<path d="M1396.02 159.6C1396.05 155.664 1399.2 152.727 1403.31 152.727C1407.57 152.727 1410.66 155.785 1410.6 159.903C1410.54 163.778 1407.36 166.746 1403.25 166.716C1399.08 166.685 1395.99 163.627 1396.02 159.6ZM1407.51 159.721C1407.54 157.42 1405.61 155.421 1403.37 155.391C1401.1 155.361 1399.14 157.299 1399.11 159.6C1399.08 161.962 1401.04 164.021 1403.34 163.99C1405.61 164.021 1407.48 162.053 1407.51 159.721Z" fill="#606061"/>
<path d="M1366.45 162.748C1366.45 163.929 1366.45 165.11 1366.45 166.412C1365.42 166.412 1364.49 166.412 1363.49 166.412C1363.49 161.961 1363.49 157.51 1363.49 152.968C1365.88 152.968 1368.23 152.847 1370.56 152.998C1372.53 153.149 1374.1 154.118 1374.74 156.177C1375.34 158.236 1374.68 160.265 1372.92 161.688C1372.77 161.809 1372.62 161.961 1372.44 162.112C1373.34 163.535 1374.19 164.928 1375.19 166.503C1374.1 166.503 1373.22 166.533 1372.32 166.472C1372.01 166.442 1371.68 166.23 1371.5 165.988C1371.17 165.564 1370.93 165.049 1370.65 164.565C1369.41 162.294 1369.41 162.263 1366.45 162.748ZM1366.51 155.33C1366.51 157.025 1366.51 158.539 1366.51 160.174C1367.6 160.174 1368.6 160.235 1369.6 160.174C1371.23 160.053 1371.98 159.205 1371.95 157.631C1371.92 156.208 1371.14 155.42 1369.53 155.33C1368.57 155.269 1367.63 155.33 1366.51 155.33Z" fill="#606061"/>
<path d="M1246.32 162.081C1247.25 163.565 1248.13 164.958 1249.04 166.411C1248.8 166.472 1248.7 166.533 1248.61 166.533C1245.68 166.654 1245.68 166.654 1244.29 164.019C1244.05 163.565 1243.81 163.141 1243.53 162.657C1242.54 162.657 1241.54 162.657 1240.39 162.657C1240.39 163.898 1240.39 165.14 1240.39 166.442C1239.3 166.442 1238.39 166.442 1237.4 166.442C1237.4 161.96 1237.4 157.54 1237.4 153.119C1239.97 153.119 1242.57 152.967 1245.14 153.179C1246.98 153.331 1248.31 154.512 1248.67 156.389C1249.04 158.357 1248.8 160.234 1247.01 161.536C1246.83 161.688 1246.62 161.839 1246.32 162.081ZM1240.39 160.113C1241.66 160.113 1242.78 160.204 1243.87 160.083C1245.26 159.932 1245.86 159.084 1245.86 157.691C1245.86 156.359 1245.29 155.571 1243.96 155.39C1242.81 155.238 1241.6 155.359 1240.39 155.359C1240.39 157.025 1240.39 158.508 1240.39 160.113Z" fill="#606061"/>
<path d="M1295.66 159.632C1295.69 159.238 1295.69 158.814 1295.72 158.421C1296.12 154.272 1299.14 152.062 1303.19 152.91C1305.13 153.334 1306.43 154.484 1307.09 156.331C1307.88 158.542 1307.85 160.782 1307.06 162.993C1306.25 165.294 1304.4 166.505 1301.83 166.536C1299.11 166.566 1297.18 165.445 1296.33 163.175C1295.91 162.054 1295.78 160.843 1295.51 159.662C1295.57 159.632 1295.6 159.632 1295.66 159.632ZM1304.55 159.692C1304.4 158.814 1304.34 157.845 1304.07 156.937C1303.74 155.817 1302.62 155.09 1301.53 155.12C1300.47 155.151 1299.56 155.817 1299.17 156.937C1298.57 158.693 1298.6 160.51 1299.14 162.266C1299.5 163.477 1300.44 164.113 1301.62 164.113C1302.8 164.113 1303.74 163.477 1304.07 162.266C1304.34 161.449 1304.4 160.601 1304.55 159.692Z" fill="#606061"/>
<path d="M1429.07 159.63C1429.07 159.236 1429.04 158.812 1429.07 158.419C1429.44 154.27 1432.46 152.03 1436.51 152.908C1438.51 153.332 1439.84 154.513 1440.47 156.45C1441.17 158.57 1441.17 160.72 1440.47 162.839C1439.72 165.171 1437.87 166.473 1435.33 166.533C1432.46 166.624 1430.46 165.474 1429.62 163.051C1429.22 161.991 1429.1 160.811 1428.86 159.69C1428.92 159.66 1429.01 159.66 1429.07 159.63ZM1437.9 159.66C1437.75 158.752 1437.69 157.783 1437.42 156.874C1437.09 155.754 1436.15 155.209 1435 155.118C1434 155.027 1433 155.693 1432.64 156.662C1431.95 158.57 1431.91 160.508 1432.58 162.415C1432.97 163.536 1433.91 164.111 1435.03 164.081C1436.15 164.081 1437.06 163.475 1437.42 162.325C1437.66 161.507 1437.75 160.599 1437.9 159.66Z" fill="#606061"/>
<path d="M1454.71 159.601C1454.74 159.208 1454.74 158.784 1454.77 158.39C1455.17 154.242 1458.19 152.031 1462.24 152.909C1464.12 153.303 1465.42 154.393 1466.08 156.18C1466.93 158.42 1466.9 160.721 1466.11 162.992C1465.3 165.294 1463.45 166.505 1460.85 166.535C1458.13 166.565 1456.2 165.445 1455.35 163.144C1454.93 162.023 1454.8 160.812 1454.53 159.631C1454.62 159.631 1454.65 159.631 1454.71 159.601ZM1463.6 159.692C1463.45 158.814 1463.39 157.845 1463.12 156.937C1462.79 155.816 1461.67 155.09 1460.61 155.12C1459.55 155.15 1458.65 155.816 1458.25 156.937C1457.65 158.693 1457.68 160.51 1458.22 162.266C1458.58 163.477 1459.52 164.113 1460.7 164.113C1461.88 164.113 1462.82 163.477 1463.15 162.266C1463.39 161.478 1463.45 160.6 1463.6 159.692Z" fill="#606061"/>
<path d="M1161.44 152.09C1162.47 152.09 1163.34 152.09 1164.34 152.09C1164.34 156.874 1164.34 161.628 1164.34 166.442C1163.43 166.442 1162.56 166.442 1161.56 166.442C1161.5 166.109 1161.44 165.746 1161.38 165.382C1158.6 167.018 1156.18 166.866 1154.51 164.989C1152.88 163.142 1152.79 159.66 1154.33 157.661C1155.81 155.723 1158.2 155.511 1161.5 157.116C1161.5 156.208 1161.5 155.39 1161.5 154.542C1161.44 153.725 1161.44 152.938 1161.44 152.09ZM1161.44 161.174C1161.44 159.508 1160.29 158.297 1158.78 158.327C1157.24 158.358 1156.18 159.569 1156.21 161.264C1156.24 162.93 1157.33 164.141 1158.87 164.111C1160.38 164.08 1161.47 162.869 1161.44 161.174Z" fill="#606061"/>
<path d="M1082.64 154.303C1082.25 155.181 1081.91 155.968 1081.55 156.816C1080.7 156.483 1079.95 156.089 1079.16 155.878C1078.41 155.666 1077.59 155.514 1076.8 155.575C1076.35 155.605 1075.72 156.09 1075.62 156.453C1075.53 156.816 1075.99 157.452 1076.35 157.725C1076.8 158.058 1077.44 158.179 1078.01 158.391C1078.83 158.663 1079.65 158.905 1080.43 159.239C1082.1 159.965 1082.82 161.086 1082.76 162.751C1082.7 164.447 1081.73 165.567 1080.22 166.172C1078.01 167.051 1075.78 166.808 1073.63 165.93C1072.9 165.627 1072.24 165.204 1071.42 164.749C1071.84 163.871 1072.21 163.114 1072.54 162.388C1073.69 162.933 1074.72 163.538 1075.84 163.902C1076.56 164.144 1077.44 164.204 1078.19 164.083C1078.68 163.992 1079.34 163.447 1079.4 163.023C1079.46 162.6 1078.98 161.964 1078.56 161.631C1078.16 161.298 1077.56 161.207 1077.02 161.025C1076.17 160.722 1075.29 160.48 1074.45 160.147C1073.08 159.572 1072.27 158.572 1072.21 157.028C1072.15 155.454 1072.78 154.242 1074.17 153.546C1075.11 153.092 1076.17 152.789 1077.2 152.729C1079.07 152.638 1080.86 153.183 1082.64 154.303Z" fill="#606061"/>
<path d="M1411.53 164.748C1412.02 163.809 1412.35 163.083 1412.71 162.416C1413.83 162.962 1414.89 163.537 1415.98 163.93C1416.71 164.173 1417.58 164.233 1418.34 164.112C1418.82 164.021 1419.49 163.476 1419.55 163.052C1419.61 162.628 1419.12 161.993 1418.7 161.66C1418.31 161.326 1417.7 161.236 1417.16 161.054C1416.31 160.751 1415.44 160.509 1414.59 160.176C1413.23 159.601 1412.41 158.601 1412.35 157.057C1412.29 155.483 1412.93 154.271 1414.32 153.575C1415.25 153.121 1416.31 152.848 1417.34 152.757C1419.25 152.606 1421 153.212 1422.75 154.271C1422.39 155.119 1422.06 155.937 1421.69 156.815C1420.85 156.451 1420.09 156.088 1419.28 155.876C1418.52 155.664 1417.7 155.513 1416.92 155.573C1416.46 155.604 1415.83 156.088 1415.74 156.451C1415.65 156.815 1416.1 157.451 1416.46 157.723C1416.92 158.056 1417.55 158.177 1418.13 158.389C1418.94 158.662 1419.76 158.904 1420.55 159.237C1422.21 159.964 1422.93 161.084 1422.87 162.75C1422.81 164.445 1421.88 165.566 1420.33 166.171C1418.13 167.049 1415.89 166.807 1413.74 165.929C1413.08 165.626 1412.41 165.202 1411.53 164.748Z" fill="#606061"/>
<path d="M1043.6 152.969C1047.02 152.969 1050.32 152.969 1053.73 152.969C1053.73 153.695 1053.73 154.392 1053.73 155.27C1051.4 155.27 1049.05 155.27 1046.6 155.27C1046.6 156.36 1046.6 157.238 1046.6 158.328C1048.71 158.328 1050.86 158.328 1053.07 158.328C1053.07 159.176 1053.07 159.872 1053.07 160.751C1050.95 160.751 1048.8 160.751 1046.63 160.751C1046.63 161.931 1046.63 162.9 1046.63 164.081C1049.05 164.081 1051.46 164.081 1054 164.081C1054 164.959 1054 165.686 1054 166.473C1050.56 166.473 1047.14 166.473 1043.63 166.473C1043.6 161.992 1043.6 157.541 1043.6 152.969Z" fill="#606061"/>
<path d="M1495.87 155.302C1495.87 156.423 1495.87 157.27 1495.87 158.3C1498.01 158.3 1500.13 158.3 1502.37 158.3C1502.37 159.148 1502.37 159.844 1502.37 160.722C1500.28 160.722 1498.14 160.722 1495.93 160.722C1495.93 161.933 1495.93 162.963 1495.93 164.083C1498.38 164.083 1500.77 164.083 1503.28 164.083C1503.28 164.931 1503.28 165.627 1503.28 166.445C1499.86 166.445 1496.47 166.445 1492.93 166.445C1492.93 162.024 1492.93 157.573 1492.93 153.031C1496.23 153.031 1499.59 153.031 1503.03 153.031C1503.03 153.728 1503.03 154.454 1503.03 155.332C1500.68 155.302 1498.35 155.302 1495.87 155.302Z" fill="#606061"/>
<path d="M1470.5 159.085C1469.17 158.025 1468.38 156.875 1468.93 155.209C1469.41 153.695 1471.13 152.727 1473.34 152.727C1475.67 152.727 1477.45 153.695 1477.97 155.209C1478.42 156.633 1478.06 157.662 1476.58 159.085C1476.67 159.176 1476.76 159.297 1476.88 159.358C1478.27 160.236 1479.09 161.447 1478.81 163.143C1478.54 164.838 1477.36 165.716 1475.82 166.201C1474.19 166.685 1472.52 166.685 1470.92 166.14C1469.5 165.686 1468.41 164.778 1468.14 163.233C1467.87 161.629 1468.56 160.387 1469.89 159.509C1470.04 159.418 1470.2 159.297 1470.5 159.085ZM1473.4 164.233C1474.01 164.051 1474.61 163.96 1475.12 163.688C1476.24 163.082 1476.27 161.477 1475.15 160.872C1474.04 160.236 1472.83 160.236 1471.71 160.872C1470.68 161.477 1470.65 162.991 1471.68 163.627C1472.19 163.93 1472.8 164.021 1473.4 164.233ZM1473.49 158.056C1474.79 158.025 1475.61 157.359 1475.58 156.39C1475.55 155.452 1474.64 154.786 1473.4 154.816C1472.13 154.846 1471.31 155.512 1471.34 156.511C1471.34 157.45 1472.22 158.086 1473.49 158.056Z" fill="#606061"/>
<path d="M1088.93 152.969C1090.05 152.969 1091.05 152.969 1092.13 152.969C1094.04 157.45 1095.94 161.901 1097.91 166.473C1096.76 166.473 1095.76 166.473 1094.7 166.473C1094.34 165.625 1093.95 164.747 1093.56 163.869C1091.5 163.869 1089.44 163.869 1087.27 163.869C1086.9 164.717 1086.54 165.595 1086.18 166.473C1085.18 166.473 1084.21 166.473 1083.06 166.473C1085.06 161.931 1086.96 157.48 1088.93 152.969ZM1090.44 156.057C1089.65 158.025 1089.02 159.6 1088.35 161.265C1089.87 161.265 1091.14 161.265 1092.56 161.265C1091.86 159.539 1091.23 157.965 1090.44 156.057Z" fill="#606061"/>
<path d="M1227.02 162.599C1227.02 163.992 1227.02 165.173 1227.02 166.445C1226.03 166.445 1225.15 166.445 1224.12 166.445C1224.12 162.024 1224.12 157.573 1224.12 153.092C1226.63 153.092 1229.17 152.849 1231.68 153.152C1234.28 153.485 1235.46 155.605 1235.16 158.451C1234.92 160.843 1233.04 162.448 1230.35 162.569C1229.32 162.63 1228.29 162.599 1227.02 162.599ZM1227.12 155.363C1227.12 156.998 1227.12 158.512 1227.12 160.147C1228.23 160.147 1229.26 160.238 1230.29 160.117C1231.65 159.935 1232.44 158.905 1232.38 157.603C1232.32 156.392 1231.5 155.514 1230.14 155.393C1229.17 155.272 1228.17 155.363 1227.12 155.363Z" fill="#606061"/>
<path d="M1107.31 162.599C1107.31 163.962 1107.31 165.143 1107.31 166.445C1106.29 166.445 1105.35 166.445 1104.35 166.445C1104.35 161.993 1104.35 157.542 1104.35 153.001C1106.71 153.001 1109.01 152.849 1111.3 153.031C1114.18 153.273 1115.6 155.15 1115.45 158.118C1115.33 160.691 1113.48 162.448 1110.7 162.599C1109.64 162.629 1108.58 162.599 1107.31 162.599ZM1107.37 160.177C1108.22 160.177 1109.04 160.177 1109.82 160.177C1110.13 160.177 1110.43 160.146 1110.7 160.086C1111.97 159.783 1112.7 158.844 1112.64 157.573C1112.57 156.422 1111.82 155.514 1110.55 155.393C1109.52 155.302 1108.46 155.362 1107.37 155.362C1107.37 156.997 1107.37 158.511 1107.37 160.177Z" fill="#606061"/>
<path d="M1310.57 160.177C1310.57 157.846 1310.57 155.484 1310.57 153.031C1313.47 153.031 1316.41 153.031 1319.4 153.031C1319.4 153.728 1319.4 154.424 1319.4 155.272C1317.47 155.272 1315.53 155.272 1313.47 155.272C1313.47 156.15 1313.47 156.877 1313.47 157.694C1313.9 157.725 1314.35 157.755 1314.77 157.755C1315.08 157.755 1315.38 157.755 1315.68 157.755C1318.13 157.967 1319.91 159.541 1320.07 161.57C1320.22 163.871 1318.77 165.749 1316.29 166.324C1313.87 166.869 1311.63 166.233 1309.39 164.931C1309.75 164.174 1310.09 163.478 1310.42 162.811C1311.48 163.205 1312.39 163.599 1313.32 163.932C1313.69 164.053 1314.11 164.113 1314.5 164.083C1315.8 163.992 1316.77 163.145 1316.8 162.115C1316.8 161.116 1316.01 160.298 1314.65 160.207C1313.35 160.117 1311.99 160.177 1310.57 160.177Z" fill="#606061"/>
<path d="M1361.37 155.181C1360.86 155.816 1360.31 156.452 1359.74 157.179C1358.53 156.119 1357.26 155.241 1355.66 155.574C1354.78 155.756 1353.81 156.18 1353.15 156.816C1351.6 158.269 1351.57 160.813 1352.93 162.478C1354.48 164.385 1356.47 164.416 1359.8 162.569C1360.31 163.114 1360.86 163.689 1361.4 164.264C1358.41 167.625 1353.57 167.323 1350.94 164.809C1348.13 162.084 1348.1 157.482 1350.94 154.787C1353.99 151.82 1359.1 152.274 1361.37 155.181Z" fill="#606061"/>
<path d="M1395.27 155.12C1394.69 155.816 1394.15 156.452 1393.63 157.118C1390.79 155.09 1388.58 154.999 1386.95 156.785C1385.5 158.36 1385.44 160.812 1386.8 162.478C1388.37 164.385 1390.64 164.416 1393.6 162.478C1394.15 163.023 1394.72 163.598 1395.3 164.173C1392.18 167.595 1387.47 167.232 1384.9 164.809C1382.08 162.175 1381.93 157.633 1384.62 154.908C1387.34 152.092 1392.3 151.941 1395.27 155.12Z" fill="#606061"/>
<path d="M1481.35 156.967C1480.96 156.21 1480.6 155.483 1480.17 154.636C1482.38 153.212 1484.62 152.274 1487.28 152.91C1490.06 153.576 1491.18 156.089 1489.55 158.481C1488.55 159.965 1487.19 161.236 1485.98 162.569C1485.59 162.993 1485.1 163.356 1484.65 163.75C1484.71 163.871 1484.77 163.962 1484.8 164.083C1486.77 164.083 1488.73 164.083 1490.76 164.083C1490.76 164.931 1490.76 165.627 1490.76 166.414C1487.37 166.414 1484.04 166.414 1480.66 166.414C1480.36 165.294 1480.51 164.386 1481.41 163.538C1482.71 162.296 1483.92 160.903 1485.16 159.601C1485.47 159.268 1485.8 158.966 1486.07 158.602C1486.68 157.815 1487.43 156.997 1486.83 155.907C1486.4 155.12 1485.13 154.999 1483.77 155.514C1483.35 155.665 1482.96 155.907 1482.56 156.119C1482.23 156.362 1481.87 156.634 1481.35 156.967Z" fill="#606061"/>
<path d="M1284.23 155.301C1284.23 154.484 1284.23 153.787 1284.23 153C1287.26 153 1290.31 153 1293.37 153C1293.7 154.06 1293.43 154.847 1292.58 155.543C1291.61 156.331 1290.77 157.239 1289.68 158.238C1290.37 158.42 1290.83 158.511 1291.28 158.662C1293.03 159.207 1294 160.297 1294.12 161.811C1294.24 163.598 1293.43 165.081 1291.76 165.838C1288.89 167.11 1286.2 166.505 1283.45 164.96C1283.84 164.203 1284.2 163.567 1284.54 162.932C1285.62 163.295 1286.65 163.719 1287.68 163.961C1288.29 164.112 1288.98 164.022 1289.59 163.87C1290.52 163.689 1291.13 163.113 1291.1 162.084C1291.1 161.145 1290.46 160.54 1289.31 160.388C1288.62 160.297 1287.92 160.328 1287.2 160.297C1286.89 160.297 1286.62 160.237 1286.29 160.176C1285.72 157.542 1288.53 157.088 1289.37 155.241C1287.68 155.301 1285.99 155.301 1284.23 155.301Z" fill="#606061"/>
<path d="M1211.66 166.533C1207.88 166.503 1205.59 163.778 1206.22 160.084C1206.7 157.238 1209.73 155.421 1212.93 156.057C1216.02 156.662 1217.65 158.903 1217.32 162.052C1217.02 164.747 1214.75 166.533 1211.66 166.533ZM1214.35 161.386C1214.42 159.69 1213.39 158.449 1211.91 158.358C1210.36 158.267 1209.21 159.418 1209.15 161.083C1209.09 162.809 1210.06 164.02 1211.6 164.111C1213.12 164.202 1214.29 163.051 1214.35 161.386Z" fill="#606061"/>
<path d="M1130.02 166.532C1126.24 166.502 1123.97 163.777 1124.58 160.053C1125.06 157.206 1128.09 155.39 1131.29 156.025C1134.38 156.631 1136.01 158.872 1135.68 162.021C1135.37 164.746 1133.11 166.532 1130.02 166.532ZM1132.71 161.294C1132.74 159.598 1131.69 158.387 1130.14 158.357C1128.6 158.327 1127.51 159.477 1127.48 161.173C1127.45 162.899 1128.48 164.08 1130.02 164.11C1131.56 164.14 1132.68 162.959 1132.71 161.294Z" fill="#606061"/>
<path d="M1176.92 161.963C1174.47 161.963 1172.11 161.963 1169.75 161.963C1170.27 164.264 1171.96 164.628 1175.11 163.053C1175.5 163.477 1175.92 163.931 1176.35 164.386C1174.92 166.505 1171.69 167.141 1169.24 165.93C1166.94 164.779 1165.88 161.903 1166.82 159.299C1167.73 156.725 1170.6 155.362 1173.53 156.089C1175.98 156.695 1177.46 159.177 1176.92 161.963ZM1174.05 160.116C1173.96 158.723 1173.35 158.118 1172.05 158.027C1170.69 157.966 1169.91 158.602 1169.6 160.116C1171.11 160.116 1172.6 160.116 1174.05 160.116Z" fill="#606061"/>
<path d="M1451.24 161.024C1451.96 161.054 1452.45 161.085 1453.05 161.145C1453.05 161.872 1453.05 162.599 1453.05 163.446C1452.51 163.477 1451.99 163.537 1451.33 163.567C1451.33 164.506 1451.33 165.414 1451.33 166.414C1450.33 166.414 1449.45 166.414 1448.46 166.414C1448.46 165.536 1448.46 164.658 1448.46 163.598C1446.31 163.598 1444.28 163.598 1442.01 163.598C1442.11 162.629 1441.98 161.781 1442.29 161.115C1443.53 158.359 1444.92 155.695 1446.25 153C1447.19 153 1448.03 153 1449.09 153C1447.79 155.725 1446.58 158.359 1445.31 161.054C1446.4 161.054 1447.34 161.054 1448.39 161.054C1448.39 160.085 1448.39 159.207 1448.39 158.208C1449.39 158.208 1450.27 158.208 1451.24 158.208C1451.24 159.086 1451.24 159.964 1451.24 161.024Z" fill="#606061"/>
<path d="M1277.94 163.476C1275.68 163.476 1273.68 163.476 1271.63 163.476C1271.44 162.355 1271.5 161.417 1271.99 160.478C1273.05 158.48 1274.1 156.451 1274.98 154.362C1275.47 153.211 1276.16 152.727 1277.37 152.908C1277.67 152.969 1277.97 152.908 1278.58 152.908C1277.28 155.664 1276.07 158.268 1274.77 160.993C1275.83 160.993 1276.74 160.993 1277.82 160.993C1277.82 160.054 1277.82 159.146 1277.82 158.147C1278.82 158.147 1279.67 158.147 1280.7 158.147C1280.7 159.055 1280.7 159.994 1280.7 160.993C1281.39 161.053 1281.94 161.114 1282.54 161.174C1282.54 161.901 1282.54 162.567 1282.54 163.355C1282.03 163.415 1281.51 163.476 1280.82 163.567C1280.82 164.475 1280.82 165.383 1280.82 166.413C1279.79 166.413 1278.97 166.413 1277.94 166.413C1277.94 165.535 1277.94 164.626 1277.94 163.476Z" fill="#606061"/>
<path d="M1041.64 153.031C1041.64 153.819 1041.64 154.485 1041.64 155.302C1040.34 155.302 1039.1 155.302 1037.68 155.302C1037.68 159.087 1037.68 162.721 1037.68 166.445C1036.56 166.445 1035.62 166.445 1034.5 166.445C1034.5 162.781 1034.5 159.117 1034.5 155.332C1033.05 155.332 1031.75 155.332 1030.39 155.332C1030.39 154.515 1030.39 153.819 1030.39 153.031C1034.11 153.031 1037.8 153.031 1041.64 153.031Z" fill="#606061"/>
<path d="M1143.99 155.996C1145.05 155.996 1145.9 155.996 1146.96 155.996C1145.62 159.569 1144.32 163.021 1143.02 166.473C1142 166.473 1141.03 166.473 1139.91 166.473C1138.64 163.051 1137.34 159.569 1135.98 155.996C1137.07 155.996 1138 155.996 1139.03 155.996C1139.82 158.358 1140.57 160.75 1141.36 163.112C1141.45 163.112 1141.54 163.142 1141.63 163.142C1142.42 160.78 1143.21 158.418 1143.99 155.996Z" fill="#606061"/>
<path d="M1377.67 166.415C1377.67 161.933 1377.67 157.543 1377.67 153.031C1378.64 153.031 1379.54 153.031 1380.54 153.031C1380.54 157.482 1380.54 161.873 1380.54 166.415C1379.66 166.415 1378.76 166.415 1377.67 166.415Z" fill="#606061"/>
<path d="M1179.34 155.997C1180.31 155.997 1181.15 155.997 1182.09 155.997C1182.15 156.451 1182.24 156.875 1182.3 157.239C1183.27 156.754 1184.27 156.27 1185.51 155.664C1185.51 156.815 1185.51 157.632 1185.51 158.541C1185.15 158.601 1184.72 158.662 1184.3 158.783C1182.94 159.146 1182.27 159.964 1182.24 161.387C1182.21 163.052 1182.24 164.687 1182.24 166.443C1181.24 166.443 1180.37 166.443 1179.37 166.443C1179.34 162.992 1179.34 159.57 1179.34 155.997Z" fill="#606061"/>
<path d="M1120.23 166.443C1119.14 166.443 1118.26 166.443 1117.29 166.443C1117.29 162.961 1117.29 159.57 1117.29 156.027C1118.17 156.027 1119.05 156.027 1120.07 156.027C1120.13 156.36 1120.23 156.784 1120.29 157.208C1121.28 156.724 1122.31 156.239 1123.52 155.664C1123.52 156.815 1123.52 157.602 1123.52 158.51C1123.25 158.571 1122.92 158.601 1122.61 158.662C1120.95 159.025 1120.23 159.873 1120.23 161.629C1120.23 163.173 1120.23 164.748 1120.23 166.443Z" fill="#606061"/>
<path d="M1151.25 166.474C1150.28 166.474 1149.43 166.474 1148.38 166.474C1148.38 164.717 1148.38 162.961 1148.38 161.235C1148.38 159.54 1148.38 157.814 1148.38 156.027C1149.37 156.027 1150.25 156.027 1151.25 156.027C1151.25 159.449 1151.25 162.901 1151.25 166.474Z" fill="#606061"/>
<path d="M1151.43 153.061C1151.43 154.03 1150.8 154.696 1149.86 154.696C1148.95 154.696 1148.23 153.999 1148.19 153.091C1148.16 152.122 1148.95 151.365 1149.89 151.395C1150.83 151.426 1151.43 152.092 1151.43 153.061Z" fill="#606061"/>
<path d="M1425.84 157.875C1426.65 157.875 1427.38 158.602 1427.38 159.419C1427.38 160.237 1426.62 160.963 1425.81 160.933C1425.05 160.903 1424.39 160.237 1424.36 159.48C1424.33 158.632 1424.99 157.905 1425.84 157.875Z" fill="#606061"/>
<path d="M1425.81 166.684C1424.99 166.654 1424.3 165.897 1424.36 165.079C1424.39 164.292 1425.05 163.656 1425.84 163.626C1426.65 163.596 1427.38 164.322 1427.38 165.14C1427.35 165.988 1426.59 166.714 1425.81 166.684Z" fill="#606061"/>
<path d="M1337.79 152.727H1335.88V166.534H1337.79V152.727Z" fill="#B7B7B7"/>
</g>
<defs>
<clipPath id="clip0_1104_1252">
<rect width="687" height="178.648" fill="white" transform="translate(834.842)"/>
</clipPath>
</defs>
</svg>
